<?xml version="1.0" encoding="utf-8"?>
<svg version="1.1" xmlns:xlink="http://www.w3.org/1999/xlink" width="1106px" height="205px" xmlns="http://www.w3.org/2000/svg">
  <g transform="matrix(1 0 0 1 -102 -416 )">
    <path d="M 0.456855112501505 167.151515151515  L 20.7255615555253 192.533742331291  L 26.297688917842 185.785276073622  L 39.9448874837931 201.65034965035  L 54.1569634892914 174.333333333333  L 76.1511276246462 152.656441717794  L 100.675221569011 130.393939393939  L 134.069093181081 137  L 163.364598689235 137  L 189.78764232398 143.453987730064  L 216.258760634425 174.333333333333  L 236.692233677602 169.50447503127  L 253.570718316509 147.134969325156  L 282.866223824663 158.592592592593  L 312.954961481967 134.367346938776  L 341.547374857928 112.311475409836  L 355.442646262189 84.75  L 387.735119542173 112  L 417.060671722644 112  L 447.852501512143 112  L 479.750048842868 112  L 505.037328264066 147.134969325156  L 529.230908812956 143.453987730064  L 537.668793387103 180.814814814815  L 563.688432625012 167.151515151515  L 588.476937285757 180.814814814815  L 603.277928068651 158.592592592593  L 616.474426549863 130.393939393939  L 636.269174271683 84.75  L 653.125357440989 0.0163934426229559  L 680.600374370187 49  L 699.3191114597 49  L 713.855691526207 107.151515151515  L 756.960503694669 112.311475409836  L 780.463154716445 130.393939393939  L 812.775633997444 112.311475409836  L 849.700814574054 167.151515151515  L 884.333493359976 127.22754491018  L 920.534731719446 130.393939393939  L 950.166723973505 127.22754491018  L 974.40841518214 107.151515151515  L 1005.26627568265 130  L 1036.51807548588 130  L 1067.86006266288 112.311475409836  L 1102.97561191324 134.367346938776  " stroke-width="2" stroke="#027db4" fill="none" transform="matrix(1 0 0 1 103 417 )" />
  </g>
</svg>