<?xml version="1.0" encoding="utf-8"?>
<svg version="1.1" xmlns:xlink="http://www.w3.org/1999/xlink" width="76px" height="6px" preserveAspectRatio="xMinYMid meet" viewBox="572 561  76 4" xmlns="http://www.w3.org/2000/svg">
  <g transform="matrix(0.898794046299169 -0.43837114678908 0.438371146789074 0.898794046299172 -185.067323884741 324.385351474905 )">
    <path d="M 0.456970779048113 128.151515151515  L 11.7270466592501 68.1515151515152  L 41.9689713927002 50.1481481481481  L 60.1859171520188 112  L 86.0306480814955 112  L 99.5213583236182 162.65034965035  L 115.105970377157 98.2962962962963  L 145.79658835591 91.3939393939394  L 168.14151197202 28.8518518518519  L 207.177824313418 91.3939393939394  L 221.266792215945 171.444444444444  L 284 177.925925925926  L 284 106.864094615798  L 292.894042144358 82.9331341265772  L 297.634382566586 36.2592592592592  L 325.094409179155 20.5185185185185  L 350.75966281051 0.148148148148124  L 401.013306284493 20.5185185185185  L 414.952709771919 69  L 452.702768143446 69  L 475.825426718082 112.185185185185  L 537.804920335994 141.814814814815  L 593.730881544661 106.864094615798  L 619.078223501952 50.1481481481481  L 657.336800884823 20.5185185185185  L 699.843007656567 50.1481481481481  L 722.63662451798 119.592592592593  L 790.150001494634 135.333333333333  L 849.915941769049 128.151515151515  L 875.910237113627 57.1351351351351  L 917.429318745703 36.2592592592592  L 973.874929004872 98.2962962962963  L 1031.62413647551 68.1515151515152  L 1074.59160613398 82.8108108108108  L 1105.58135294293 128.151515151515  L 1173.42186949934 162.65034965035  L 1194.12348668281 106  L 1224.81410466156 106  L 1250.65883559104 50.1481481481481  L 1305.50546628513 15.6363636363636  L 1346.25497101768 68.1515151515152  L 1411 82.8108108108108  L 1411 128.979253452124  L 1446.25226395819 113.116303492671  L 1480.27556436031 91.3939393939394  " stroke-width="2" stroke="#aaaaaa" fill="none" transform="matrix(1 0 0 1 103 436 )" />
  </g>
</svg>