<?xml version="1.0" encoding="utf-8"?>
<svg version="1.1" xmlns:xlink="http://www.w3.org/1999/xlink" width="50px" height="27px" xmlns="http://www.w3.org/2000/svg">
  <defs>
    <mask fill="white" id="clip50">
      <path d="M 50 23.1428571428571  L 50 3.85714285714286  C 50 1.69714285714286  48.625 0  46.875 0  L 0 0  L 0 27  L 46.875 27  C 48.625 27  50 25.3028571428571  50 23.1428571428571  Z " fill-rule="evenodd" />
    </mask>
  </defs>
  <g transform="matrix(1 0 0 1 -738 -287 )">
    <path d="M 50 23.1428571428571  L 50 3.85714285714286  C 50 1.69714285714286  48.625 0  46.875 0  L 0 0  L 0 27  L 46.875 27  C 48.625 27  50 25.3028571428571  50 23.1428571428571  Z " fill-rule="nonzero" fill="#ffffff" stroke="none" transform="matrix(1 0 0 1 738 287 )" />
    <path d="M 50 23.1428571428571  L 50 3.85714285714286  C 50 1.69714285714286  48.625 0  46.875 0  L 0 0  L 0 27  L 46.875 27  C 48.625 27  50 25.3028571428571  50 23.1428571428571  Z " stroke-width="2" stroke="#d9d9d9" fill="none" transform="matrix(1 0 0 1 738 287 )" mask="url(#clip50)" />
  </g>
</svg>