<?xml version="1.0" encoding="utf-8"?>
<svg version="1.1" xmlns:xlink="http://www.w3.org/1999/xlink" width="49px" height="27px" xmlns="http://www.w3.org/2000/svg">
  <defs>
    <mask fill="white" id="clip51">
      <path d="M 49 23.1428571428571  L 49 3.85714285714286  C 49 1.69714285714286  47.6525 0  45.9375 0  L 0 0  L 0 27  L 45.9375 27  C 47.6525 27  49 25.3028571428571  49 23.1428571428571  Z " fill-rule="evenodd" />
    </mask>
  </defs>
  <g transform="matrix(1 0 0 1 -1551 -43 )">
    <path d="M 49 23.1428571428571  L 49 3.85714285714286  C 49 1.69714285714286  47.6525 0  45.9375 0  L 0 0  L 0 27  L 45.9375 27  C 47.6525 27  49 25.3028571428571  49 23.1428571428571  Z " fill-rule="nonzero" fill="#ffffff" stroke="none" transform="matrix(1 0 0 1 1551 43 )" />
    <path d="M 49 23.1428571428571  L 49 3.85714285714286  C 49 1.69714285714286  47.6525 0  45.9375 0  L 0 0  L 0 27  L 45.9375 27  C 47.6525 27  49 25.3028571428571  49 23.1428571428571  Z " stroke-width="2" stroke="#d9d9d9" fill="none" transform="matrix(1 0 0 1 1551 43 )" mask="url(#clip51)" />
  </g>
</svg>