<?xml version="1.0" encoding="utf-8"?>
<svg version="1.1" xmlns:xlink="http://www.w3.org/1999/xlink" width="24px" height="24px" xmlns="http://www.w3.org/2000/svg">
  <defs>
    <filter x="294px" y="959px" width="24px" height="24px" filterUnits="userSpaceOnUse" id="filter52">
      <feOffset dx="0" dy="1" in="SourceAlpha" result="shadowOffsetInner" />
      <feGaussianBlur stdDeviation="1" in="shadowOffsetInner" result="shadowGaussian" />
      <feComposite in2="shadowGaussian" operator="atop" in="SourceAlpha" result="shadowComposite" />
      <feColorMatrix type="matrix" values="0 0 0 0 0  0 0 0 0 0  0 0 0 0 0  0 0 0 0.349019607843137 0  " in="shadowComposite" />
    </filter>
    <g id="widget53">
      <path d="M 306 960  C 311.6 960  316 964.4  316 970  C 316 975.6  311.6 980  306 980  C 300.4 980  296 975.6  296 970  C 296 964.4  300.4 960  306 960  Z " fill-rule="nonzero" fill="#ffffff" stroke="none" />
      <path d="M 306 960.5  C 311.32 960.5  315.5 964.68  315.5 970  C 315.5 975.32  311.32 979.5  306 979.5  C 300.68 979.5  296.5 975.32  296.5 970  C 296.5 964.68  300.68 960.5  306 960.5  Z " stroke-width="1" stroke="#d9d9d9" fill="none" />
    </g>
  </defs>
  <g transform="matrix(1 0 0 1 -294 -959 )">
    <use xlink:href="#widget53" filter="url(#filter52)" />
    <use xlink:href="#widget53" />
  </g>
</svg>