<?xml version="1.0" encoding="utf-8"?>
<svg version="1.1" xmlns:xlink="http://www.w3.org/1999/xlink" width="190px" height="54px" preserveAspectRatio="xMinYMid meet" viewBox="136 191  190 52" xmlns="http://www.w3.org/2000/svg">
  <g transform="matrix(-0.544639035015027 0.838670567945424 -0.838670567945424 -0.544639035015027 538.803130332628 141.453769402868 )">
    <path d="M 0.382300334396092 128.151515151515  L 35.1111111111111 50.1481481481481  L 83.2592592592592 162.65034965035  L 140.666666666667 28.8518518518519  L 185.111111111111 171.444444444444  L 236.962962962963 177.925925925926  L 293.444444444444 0.148148148148124  L 347.148148148148 68.1515151515152  L 398.074074074074 112.185185185185  L 449.925925925926 141.814814814815  L 496.713411366533 106.864094615798  L 549.925925925926 20.5185185185185  L 604.555555555556 119.592592592593  L 661.037037037037 135.333333333333  L 711.037037037037 128.151515151515  L 767.518518518518 36.2592592592592  L 814.740740740741 98.2962962962963  L 863.053548341088 68.1515151515152  L 924.925925925926 128.151515151515  L 981.681091363726 162.65034965035  L 1023.18881348658 105.331101726437  L 1092.18181818182 15.6363636363636  L 1126.27272727273 68.1515151515152  L 1180.81818181818 135.333333333333  L 1238.39393939394 91.3939393939394  " stroke-width="2" stroke="#d9001b" fill="none" transform="matrix(1 0 0 1 59 102 )" />
  </g>
</svg>